<?xml version="1.0" encoding="UTF-8"?>
<svg version="1.0" xmlns="http://www.w3.org/2000/svg"
 width="137.159857pt" height="118.130213pt" viewBox="0 0 137.159857 118.130213"
 preserveAspectRatio="xMidYMid meet">
<metadata>
Created by potrace 1.12, written by Peter Selinger 2001-2015
</metadata>
<defs>
  <linearGradient id="logoGradient" x1="0%" y1="0%" x2="100%" y2="100%">
    <stop offset="0%" stop-color="#2a7df6" />
    <stop offset="48%" stop-color="#3ec9d7" />
    <stop offset="100%" stop-color="#6ee7ff" />
  </linearGradient>
</defs>
<g transform="translate(0.169454,117.925788) scale(0.100000,-0.100000)"
 fill="url(#logoGradient)" stroke="none">
<path d="M495 1173 c-81 -19 -222 -258 -349 -590 -89 -233 -122 -353 -141
-527 l-7 -58 44 7 c56 9 135 47 175 85 28 26 33 39 34 78 1 75 13 145 25 149
6 2 26 -27 44 -64 79 -161 257 -269 387 -234 41 11 73 34 73 51 0 5 -24 25
-52 43 -73 46 -160 144 -197 219 -55 111 -75 268 -50 390 18 94 51 178 69 178
19 0 84 -130 150 -300 92 -235 204 -477 231 -500 3 -3 11 -14 17 -26 6 -11 29
-33 51 -49 35 -23 48 -27 86 -22 60 6 79 25 125 122 88 183 160 499 160 700 0
178 -43 274 -144 321 -51 24 -168 34 -180 16 -3 -4 8 -28 24 -53 45 -69 63
-155 63 -304 0 -155 -31 -387 -55 -401 -9 -5 -55 23 -50 31 1 3 -12 33 -30 68
-44 86 -103 216 -142 317 -73 183 -147 305 -207 339 -35 20 -103 26 -154 14z"/>
</g>
</svg>
